<svg width="226" height="167" viewBox="0 0 226 167" fill="none" xmlns="http://www.w3.org/2000/svg">
<g filter="url(#filter0_d_353_4739)">
<rect x="21.3229" y="21.3229" width="182.562" height="124.354" rx="14.5521" fill="white" stroke="#D9D9D9" stroke-width="2.64583"/>
<path fill-rule="evenodd" clip-rule="evenodd" d="M155.609 83.8419C155.609 107.411 136.504 126.517 112.936 126.517C89.3688 126.517 70.2634 107.411 70.2634 83.8419C70.2634 60.273 89.3688 41.1667 112.936 41.1667C136.504 41.1667 155.609 60.273 155.609 83.8419ZM123.188 67.9866C129.124 70.0251 133.467 73.0776 132.615 78.7581C131.996 82.9179 129.682 84.9297 126.606 85.6341C130.825 87.822 132.263 91.9744 130.927 96.9953C128.39 104.221 122.361 104.829 114.341 103.319L112.393 111.086L107.692 109.917L109.613 102.254C108.394 101.953 107.148 101.63 105.865 101.286L103.937 108.986L99.241 107.817L101.186 100.034L91.7166 97.6543L94.0524 92.2912C94.0524 92.2912 97.5186 93.2064 97.4704 93.1397C98.8017 93.4679 99.3937 92.6034 99.6267 92.0297L104.904 70.9483C104.963 69.9531 104.617 68.699 102.713 68.2241C102.785 68.1734 99.2972 67.3783 99.2972 67.3783L100.548 62.3754L110.031 64.7154L111.959 57.0203L116.658 58.189L114.769 65.732C116.034 66.0175 117.303 66.3083 118.538 66.6152L120.413 59.1202L125.114 60.2889L123.188 67.9866ZM111.939 80.8234C115.142 81.6724 122.11 83.5199 123.325 78.6758C124.564 73.7196 117.794 72.2228 114.479 71.4899C114.103 71.4068 113.772 71.3336 113.502 71.2662L111.161 80.6209C111.384 80.676 111.646 80.7455 111.939 80.8234ZM108.311 95.8849C112.147 96.8953 120.535 99.105 121.87 93.7672C123.236 88.3095 115.103 86.4916 111.134 85.6046C110.691 85.5055 110.3 85.418 109.979 85.3384L107.397 95.6483C107.659 95.7133 107.967 95.7942 108.311 95.8848L108.311 95.8849Z" fill="#F7931A"/>
</g>
<defs>
<filter id="filter0_d_353_4739" x="0" y="0" width="225.208" height="167" filterUnits="userSpaceOnUse" color-interpolation-filters="sRGB">
<feFlood flood-opacity="0" result="BackgroundImageFix"/>
<feColorMatrix in="SourceAlpha" type="matrix" values="0 0 0 0 0 0 0 0 0 0 0 0 0 0 0 0 0 0 127 0" result="hardAlpha"/>
<feOffset/>
<feGaussianBlur stdDeviation="10"/>
<feComposite in2="hardAlpha" operator="out"/>
<feColorMatrix type="matrix" values="0 0 0 0 0 0 0 0 0 0 0 0 0 0 0 0 0 0 0.07 0"/>
<feBlend mode="normal" in2="BackgroundImageFix" result="effect1_dropShadow_353_4739"/>
<feBlend mode="normal" in="SourceGraphic" in2="effect1_dropShadow_353_4739" result="shape"/>
</filter>
</defs>
</svg>
