<svg width="226" height="167" viewBox="0 0 226 167" fill="none" xmlns="http://www.w3.org/2000/svg">
<g filter="url(#filter0_d_353_4844)">
<rect x="21.3229" y="21.3229" width="182.562" height="124.354" rx="14.5521" fill="white" stroke="#D9D9D9" stroke-width="2.64583"/>
<path fill-rule="evenodd" clip-rule="evenodd" d="M141.484 61.4341C138.489 61.4341 136.057 63.8534 136.057 66.836C136.057 69.8203 138.489 72.2344 141.484 72.2344C144.484 72.2344 146.914 69.8203 146.914 66.836C146.914 63.8534 144.484 61.4341 141.484 61.4341ZM63.2019 79.5327C61.8104 79.4432 58.5866 79.2345 58.5866 76.3484C58.5866 72.8659 63.2248 72.8659 64.9655 72.8659C68.0271 72.8659 71.9881 73.7641 74.8204 74.608C74.8204 74.608 76.3971 75.1624 77.7392 75.7273L77.8644 75.7624V66.2236L77.6968 66.1727C74.3531 65.0095 70.4714 63.8919 63.2707 63.8919C50.8568 63.8919 46.4584 71.0834 46.4584 77.2502C46.4584 80.8012 47.9892 89.1663 62.2019 90.1295L62.2151 90.1303C63.4331 90.2045 66.6092 90.3982 66.6092 93.3699C66.6092 95.8331 63.9902 97.2823 59.5865 97.2823C54.7614 97.2823 50.0773 96.0612 47.2344 94.898V104.719C51.4917 105.833 56.2922 106.384 61.918 106.384C74.0515 106.384 79.4904 99.5789 79.4904 92.8313C79.4904 85.1837 73.4078 80.2134 63.2019 79.5327ZM99.8388 75.2932C99.8624 75.2316 99.881 75.1831 99.8947 75.1484H112.892C112.522 76.3256 110.203 83.4293 104.916 90.0997C104.916 90.0997 110.804 100.365 112.15 105.933H98.5403C98.5403 105.933 96.9143 98.5402 93.6234 93.6278V105.933H82.2588V66.1288L93.6234 63.8919V85.8539C97.6502 81.0087 99.4445 76.3229 99.8388 75.2932ZM167.736 105.933V65.8516L178.75 63.8919V105.933H167.736ZM129.77 74.7328C119.596 75.0591 114.426 79.6031 114.426 88.6349V105.934H125.53V91.8245C125.53 86.419 126.242 84.1014 132.692 83.8804V74.8924C131.607 74.6626 129.77 74.7328 129.77 74.7328ZM135.982 105.934V75.1839H146.994V105.934H135.982ZM151.66 65.8516L162.667 63.8919V105.933H151.66V65.8516Z" fill="#862165"/>
</g>
<defs>
<filter id="filter0_d_353_4844" x="0" y="0" width="225.208" height="167" filterUnits="userSpaceOnUse" color-interpolation-filters="sRGB">
<feFlood flood-opacity="0" result="BackgroundImageFix"/>
<feColorMatrix in="SourceAlpha" type="matrix" values="0 0 0 0 0 0 0 0 0 0 0 0 0 0 0 0 0 0 127 0" result="hardAlpha"/>
<feOffset/>
<feGaussianBlur stdDeviation="10"/>
<feComposite in2="hardAlpha" operator="out"/>
<feColorMatrix type="matrix" values="0 0 0 0 0 0 0 0 0 0 0 0 0 0 0 0 0 0 0.07 0"/>
<feBlend mode="normal" in2="BackgroundImageFix" result="effect1_dropShadow_353_4844"/>
<feBlend mode="normal" in="SourceGraphic" in2="effect1_dropShadow_353_4844" result="shape"/>
</filter>
</defs>
</svg>
